<svg xmlns="http://www.w3.org/2000/svg" viewBox="0 0 512 512" width="30" height="30">
	<style>
		tspan { white-space:pre }
		.shp0 { fill: #ffffff } 
	</style>
	<g id="Layer">
		<g id="Layer">
			<path id="Layer" fill-rule="evenodd" class="shp0" d="M441.43 185.43C441.43 312.31 275.49 498.59 268.42 506.46C261.8 513.84 250.21 513.85 243.58 506.46C236.51 498.59 70.57 312.31 70.57 185.43C70.57 83.18 153.75 0 256 0C358.24 0 441.43 83.18 441.43 185.43ZM408.03 185.43C408.03 101.59 339.83 33.39 256 33.39C172.17 33.39 103.97 101.59 103.97 185.43C103.97 272.51 200.15 403.39 256 469.73C311.86 403.37 408.03 272.51 408.03 185.43Z" />
		</g>
	</g>
	<g id="Layer">
		<g id="Layer">
			<path id="Layer" fill-rule="evenodd" class="shp0" d="M349.29 185.43C349.29 236.87 307.44 278.72 256 278.72C204.56 278.72 162.71 236.87 162.71 185.43C162.71 133.99 204.56 92.13 256 92.13C307.44 92.13 349.29 133.99 349.29 185.43ZM315.9 185.43C315.9 152.4 289.03 125.53 256 125.53C222.97 125.53 196.1 152.4 196.1 185.43C196.1 218.46 222.97 245.33 256 245.33C289.03 245.33 315.9 218.46 315.9 185.43Z" />
		</g>
	</g>
	<g id="Layer">
	</g>
	<g id="Layer">
	</g>
	<g id="Layer">
	</g>
	<g id="Layer">
	</g>
	<g id="Layer">
	</g>
	<g id="Layer">
	</g>
	<g id="Layer">
	</g>
	<g id="Layer">
	</g>
	<g id="Layer">
	</g>
	<g id="Layer">
	</g>
	<g id="Layer">
	</g>
	<g id="Layer">
	</g>
	<g id="Layer">
	</g>
	<g id="Layer">
	</g>
	<g id="Layer">
	</g>
</svg>